<?xml version="1.0" encoding="utf-8"?>
<!-- Generator: Adobe Illustrator 24.0.1, SVG Export Plug-In . SVG Version: 6.00 Build 0)  -->
<svg version="1.1" id="Layer_1" xmlns="http://www.w3.org/2000/svg" xmlns:xlink="http://www.w3.org/1999/xlink" x="0px" y="0px"
	 viewBox="0 0 1156.24 1080" style="enable-background:new 0 0 1156.24 1080;" xml:space="preserve">
<style type="text/css">
	.st0{fill:#FDFDFF;}
</style>
<g>
	<path class="st0" d="M288.52,37.07c2.71-5.08,7.28-8.64,13.72-10.67c6.43-2.03,14.56-3.05,24.38-3.05c9.82,0,17.61,0.85,23.37,2.54
		c5.75,1.7,10.16,3.73,13.21,6.1c3.05,2.37,5.41,5.76,7.11,10.16c1.69,5.76,2.54,14.57,2.54,26.42V350.5
		c0,7.79-0.25,13.64-0.76,17.53c-0.51,3.9-2.12,8.38-4.83,13.46c-4.74,9.14-17.96,13.72-39.62,13.72c-23.71,0-37.59-6.26-41.66-18.8
		c-2.03-5.76-3.05-14.56-3.05-26.42V246.87H148.31V350.5c0,7.79-0.26,13.64-0.76,17.53c-0.51,3.9-2.12,8.38-4.82,13.46
		c-4.75,9.14-17.96,13.72-39.62,13.72c-23.71,0-37.59-6.26-41.66-18.8c-2.03-5.76-3.05-14.56-3.05-26.42V68.06
		c0-7.79,0.25-13.63,0.76-17.53c0.51-3.89,2.11-8.38,4.82-13.46c4.74-9.15,17.95-13.72,39.62-13.72c23.7,0,37.76,6.27,42.16,18.8
		c1.69,5.76,2.54,14.57,2.54,26.42V172.2h134.62V68.06c0-7.79,0.25-13.63,0.76-17.53C284.2,46.64,285.81,42.15,288.52,37.07z"/>
	<path class="st0" d="M448.54,161.53c28.45-26.42,60.96-39.62,97.54-39.62s68.91,13.13,97.03,39.37
		c28.11,26.25,42.16,59.69,42.16,100.33c0,28.11-7.29,53.09-21.84,74.93c-14.56,21.84-32.26,37.93-53.09,48.26
		c-20.83,10.33-42.42,15.5-64.77,15.5c-22.35,0-44.03-5.5-65.02-16.51c-21-11-38.7-27.26-53.09-48.77
		c-14.4-21.5-21.59-45.8-21.59-72.9C405.86,221.47,420.09,187.94,448.54,161.53z M512.04,298.43c10.83,8.3,21.84,12.45,33.02,12.45
		c11.17,0,22.35-4.23,33.53-12.7c11.18-8.46,16.76-20.99,16.76-37.59c0-16.59-5.26-28.96-15.75-37.08
		c-10.5-8.13-21.84-12.19-34.03-12.19s-23.54,4.24-34.04,12.7c-10.5,8.47-15.75,20.92-15.75,37.34
		C495.78,277.78,501.19,290.14,512.04,298.43z"/>
	<path class="st0" d="M1050.52,130.03c21.67,9.49,32.51,21.17,32.51,35.05c0,5.76-2.71,14.99-8.13,27.69
		c-5.42,12.7-9.99,23.8-13.72,33.27l-55.88,136.14c-5.08,14.91-13.55,25.4-25.4,31.5c-5.08,2.37-11.52,3.56-19.3,3.56
		c-7.79,0-15.33-2.96-22.61-8.89c-7.29-5.92-12.11-11.94-14.48-18.04l-4.06-8.63c-2.71-6.77-12.7-33.19-29.97-79.25
		c-3.39,8.13-8.38,21.42-14.99,39.88c-6.6,18.46-10.84,29.97-12.7,34.54c-1.86,4.57-3.05,7.62-3.55,9.14
		c-0.51,1.52-1.96,4.32-4.32,8.38c-2.37,4.06-5.08,7.62-8.13,10.67c-8.13,8.13-17.45,12.19-27.94,12.19
		c-10.5,0-19.3-2.96-26.42-8.89c-7.11-5.92-11.86-11.94-14.22-18.04L700.5,183.37c-3.39-10.16-5.08-16.76-5.08-19.81
		c0-13.54,9.65-24.21,28.96-32c10.83-4.4,19.64-6.6,26.42-6.6c6.77,0,12.27,1.44,16.51,4.32c4.23,2.88,7.19,5.76,8.89,8.64
		c1.69,2.88,3.05,5.84,4.06,8.89c5.75,13.55,17.78,45.39,36.07,95.5L846.3,160c2.03-6.77,5.75-12.7,11.18-17.78
		c9.82-9.82,19.81-14.73,29.97-14.73c10.16,0,18.87,2.71,26.16,8.13c7.28,5.42,12.27,10.84,14.98,16.26l4.06,8.64
		c16.93,47.42,26.93,74.51,29.97,81.28l30.99-84.33c8.13-21.67,20.32-32.51,36.58-32.51
		C1036.63,124.95,1043.41,126.65,1050.52,130.03z"/>
</g>
<g>
	<path class="st0" d="M600.19,616.57l-33.02-2.03v70.1c0,9.14,1.44,15.75,4.32,19.81c2.87,4.06,8.29,6.1,16.25,6.1
		c7.95,0,14.05,0.25,18.29,0.76c4.23,0.51,8.71,2.12,13.46,4.83c7.79,4.4,11.68,15.75,11.68,34.04c0,21.34-4.75,34.38-14.23,39.12
		c-5.08,2.37-9.57,3.81-13.46,4.32c-3.9,0.51-9.57,0.76-17.02,0.76c-35.23,0-61.97-7.95-80.26-23.88
		c-18.29-15.92-27.43-42.84-27.43-80.77v-75.18c-6.44,1.02-13.38,1.52-20.83,1.52c-7.46,0-13.64-2.87-18.54-8.64
		c-4.91-5.75-7.37-15.57-7.37-29.46c0-13.88,0.84-23.95,2.54-30.23c1.69-6.26,4.06-10.75,7.11-13.46c5.41-4.4,12.19-6.61,20.32-6.61
		l16.76,2.03v-52.32c0-7.79,0.25-13.54,0.76-17.27c0.51-3.72,2.11-7.79,4.83-12.19c4.4-8.46,17.44-12.7,39.12-12.7
		c23.03,0,36.74,6.27,41.15,18.8c1.69,5.42,2.54,14.06,2.54,25.91v49.78c14.9-1.35,26.16-2.03,33.78-2.03
		c7.62,0,13.37,0.25,17.27,0.76c3.89,0.51,8.38,2.12,13.46,4.83c8.8,4.41,13.21,17.45,13.21,39.12c0,21.34-4.57,34.38-13.72,39.12
		c-5.08,2.37-9.57,3.81-13.46,4.32C613.82,616.31,607.98,616.57,600.19,616.57z"/>
</g>
<g>
	<circle class="st0" cx="819.94" cy="1033.72" r="31.52"/>
</g>
<g>
	<g>
		<g>
			<path class="st0" d="M799.06,811.19c-23.72,0-47-5.9-69.19-17.54c-22.24-11.65-41.21-29.05-56.37-51.72
				c-15.33-22.9-23.11-49.1-23.11-77.88c0-43.04,15.32-79.1,45.54-107.15l0,0c30.02-27.88,64.89-42.02,103.64-42.02
				c38.74,0,73.44,14.06,103.14,41.78c29.87,27.89,45.01,63.85,45.01,106.88c0,29.77-7.86,56.65-23.35,79.9
				c-15.38,23.07-34.41,40.34-56.56,51.32C845.84,805.66,822.71,811.19,799.06,811.19z M708.13,570.04
				c-26.79,24.87-39.81,55.63-39.81,94.02c0,25.17,6.76,48.01,20.08,67.91c13.48,20.16,30.24,35.57,49.79,45.81
				c19.6,10.28,40.07,15.49,60.87,15.49c20.86,0,41.31-4.9,60.78-14.56c19.31-9.57,36-24.78,49.61-45.2
				c13.5-20.25,20.34-43.79,20.34-69.96c0-38.39-12.86-69.07-39.32-93.78c-26.64-24.87-56.38-36.96-90.91-36.96
				C765.49,532.81,734.73,545.33,708.13,570.04L708.13,570.04z M798.55,721.78c-13.15,0-26.09-4.81-38.47-14.29
				c-13.12-10.04-19.77-24.91-19.77-44.2c0-19.19,6.42-34.1,19.09-44.32c12.09-9.74,25.43-14.69,39.66-14.69
				c14.16,0,27.46,4.73,39.52,14.07c12.76,9.88,19.23,24.74,19.23,44.17c0,19.48-6.84,34.53-20.32,44.74
				C824.77,716.9,811.67,721.78,798.55,721.78z M799.06,622.21c-10.18,0-19.47,3.5-28.41,10.71c-8.35,6.73-12.41,16.66-12.41,30.36
				c0,13.61,4.17,23.41,12.74,29.97l0,0c9.31,7.13,18.33,10.6,27.57,10.6c9.12,0,18.59-3.66,28.11-10.88
				c8.89-6.73,13.21-16.69,13.21-30.45c0-13.79-4.02-23.6-12.27-30C818.64,625.59,809.3,622.21,799.06,622.21z"/>
		</g>
	</g>
</g>
<g>
	<path class="st0" d="M1010.81,661.12c0.83,89.73-56.34,166.2-136.28,194.25c-1.14,0.33-2.24,0.75-3.35,1.2
		c-11.5,4.9-19.6,16.29-19.6,29.61v63.93c0,17.72-14.37,32.09-32.09,32.09h0c-17.72,0-32.09-14.37-32.09-32.09V834.39
		c0-17.12,13.45-31.14,30.36-32.06h0.09c0.54-0.03,1.08-0.03,1.64-0.03h-1.37c73.13-5.74,130.43-67.81,128.53-142.86
		c-1.82-72.08-59.42-131.73-131.4-135.87c-41.1-2.36-78.66,13.05-105.63,39.33c-0.03,0.03-0.06,0.06-0.09,0.09
		c-0.72,0.69-1.4,1.37-2.09,2.09c-0.03,0-0.06,0.06-0.06,0.06c-5.68,5.14-13.24,8.28-21.51,8.28c-17.75,0-32.09-14.37-32.09-32.09
		c0-8.22,3.08-15.72,8.16-21.39c0.03-0.06,0.09-0.12,0.18-0.21c0.93-0.93,1.85-1.85,2.78-2.75c38.56-37.52,91.99-59.93,150.56-57.56
		C923.27,463.76,1009.81,553.21,1010.81,661.12z"/>
</g>
</svg>
